<svg width="30" height="13" viewBox="0 0 30 13" fill="none" xmlns="http://www.w3.org/2000/svg">
<g clip-path="url(#clip0_1336_814)">
<path d="M6.0743 4.44028L6.7293 4.91308L5.1192 6.93228L6.9839 9.16958L6.3379 9.66998L4.1369 6.97758L6.0743 4.44028ZM3.8367 9.54228H3V2.51208L3.8367 2.33008V9.54228ZM24.7807 5.15858C24.3443 5.15858 24.0092 5.32228 23.7758 5.64978C23.542 5.97718 23.4253 6.45618 23.4253 7.08678C23.4253 7.71148 23.542 8.18278 23.7758 8.50108C24.0092 8.81938 24.3443 8.97858 24.7807 8.97858C25.223 8.97858 25.5611 8.81928 25.795 8.50108C26.0282 8.18288 26.145 7.71148 26.145 7.08688C26.145 6.45618 26.0282 5.97718 25.795 5.64978C25.561 5.32228 25.223 5.15858 24.7807 5.15858ZM24.7807 4.48558C25.4717 4.48558 26.0147 4.71008 26.4084 5.15858C26.8028 5.60738 27 6.25008 27 7.08688C27 7.91128 26.8045 8.54518 26.4132 8.98788C26.0223 9.43008 25.4776 9.65158 24.7807 9.65158C24.0897 9.65158 23.5467 9.43008 23.153 8.98778C22.7586 8.54518 22.5614 7.91128 22.5614 7.08678C22.5614 6.25008 22.7598 5.60738 23.1571 5.15858C23.5544 4.71008 24.0956 4.48558 24.7807 4.48558ZM19.2467 8.95138C19.3673 8.95065 19.4874 8.93534 19.6043 8.90578C19.7306 8.87484 19.8546 8.83538 19.9756 8.78768C20.0974 8.74005 20.2142 8.68063 20.3244 8.61028C20.4273 8.54462 20.5241 8.47003 20.6139 8.38738V7.22328H19.7446C19.3036 7.22328 18.982 7.29908 18.7801 7.45068C18.5776 7.60228 18.477 7.84168 18.477 8.16918C18.477 8.69058 18.7333 8.95138 19.2467 8.95138ZM17.6763 8.20558C17.6763 7.70238 17.8445 7.31858 18.1808 7.05518C18.5178 6.79138 19.0068 6.65918 19.6499 6.65918H20.6139V6.34098C20.6139 5.57098 20.2746 5.18598 19.5954 5.18598C19.377 5.18598 19.1484 5.21638 18.9085 5.27698C18.6687 5.33778 18.4491 5.41348 18.2495 5.50438L18.0038 4.91308C18.2525 4.77368 18.5208 4.66618 18.8085 4.59008C19.0963 4.51468 19.377 4.47648 19.6499 4.47648C20.8259 4.47648 21.4145 5.10408 21.4145 6.35908V9.54238H20.7957L20.6957 8.99668C20.4469 9.19678 20.1823 9.35138 19.8997 9.46068C19.618 9.56988 19.3497 9.62438 19.0951 9.62438C18.6522 9.62438 18.3052 9.49858 18.0535 9.24688C17.802 8.99518 17.6763 8.64818 17.6763 8.20558ZM16.0255 4.44028L16.6805 4.91308L15.071 6.93228L16.935 9.16958L16.2896 9.66998L14.0886 6.97758L16.0255 4.44028ZM13.7885 9.54228H12.9518V2.51208L13.7886 2.33008L13.7885 9.54228ZM9.2949 8.95138C9.4097 8.95138 9.5288 8.93628 9.6525 8.90578C9.77879 8.87484 9.90284 8.83538 10.0238 8.78768C10.1456 8.74018 10.2625 8.68076 10.3726 8.61028C10.4757 8.54478 10.5728 8.47018 10.6626 8.38738V7.22328H9.7928C9.3524 7.22328 9.0308 7.29908 8.8283 7.45068C8.6263 7.60228 8.5252 7.84168 8.5252 8.16918C8.5252 8.69058 8.7815 8.95138 9.2949 8.95138ZM7.7245 8.20558C7.7245 7.70238 7.8927 7.31858 8.2297 7.05518C8.566 6.79138 9.0557 6.65918 9.6981 6.65918H10.6627V6.34098C10.6627 5.57098 10.3228 5.18598 9.6437 5.18598C9.4257 5.18598 9.1966 5.21638 8.9574 5.27698C8.7176 5.33778 8.4979 5.41348 8.2977 5.50438L8.052 4.91308C8.3007 4.77368 8.569 4.66618 8.8573 4.59008C9.1451 4.51468 9.4257 4.47648 9.6981 4.47648C10.8747 4.47648 11.4627 5.10408 11.4627 6.35908V9.54238H10.8445L10.7444 8.99668C10.4957 9.19678 10.2304 9.35138 9.9486 9.46068C9.6666 9.56988 9.3985 9.62438 9.1433 9.62438C8.701 9.62438 8.354 9.49858 8.1023 9.24688C7.8507 8.99518 7.7245 8.64818 7.7245 8.20558Z" fill="black"/>
</g>
<defs>
<clipPath id="clip0_1336_814">
<rect width="24" height="8" fill="white" transform="translate(3 2)"/>
</clipPath>
</defs>
</svg>
