<svg width="184" height="184" viewBox="0 0 184 184" fill="none" xmlns="http://www.w3.org/2000/svg">
<path d="M51.5849 76.6777C51.5849 78.9825 51.8283 80.8513 52.2543 82.2218C52.7412 83.5923 53.3498 85.0873 54.2019 86.7069C54.5062 87.2053 54.6279 87.7036 54.6279 88.1397C54.6279 88.7626 54.2627 89.3856 53.4716 90.0085L49.6373 92.6248C49.0896 92.9986 48.5418 93.1855 48.0549 93.1855C47.4463 93.1855 46.8377 92.874 46.2291 92.3134C45.377 91.3789 44.6467 90.3823 44.0381 89.3856C43.4295 88.3266 42.8209 87.143 42.1514 85.7102C37.4042 91.4412 31.4399 94.3067 24.2583 94.3067C19.1459 94.3067 15.0682 92.8117 12.0861 89.8216C9.10386 86.8315 7.58234 82.8447 7.58234 77.8613C7.58234 72.5663 9.40817 68.268 13.1207 65.0288C16.8332 61.7895 21.763 60.1699 28.0316 60.1699C30.1009 60.1699 32.2311 60.3568 34.4829 60.6682C36.7348 60.9797 39.0475 61.4781 41.4819 62.0387V57.4913C41.4819 52.757 40.5082 49.4554 38.6215 47.5243C36.6739 45.5932 33.3874 44.6588 28.7011 44.6588C26.571 44.6588 24.38 44.908 22.1281 45.4686C19.8763 46.0293 17.6853 46.7145 15.5551 47.5866C14.5814 48.0227 13.851 48.2718 13.425 48.3964C12.999 48.521 12.6947 48.5833 12.4512 48.5833C11.5992 48.5833 11.1731 47.9604 11.1731 46.6522V43.5998C11.1731 42.6031 11.2949 41.8556 11.5992 41.4195C11.9035 40.9835 12.4512 40.5474 13.3033 40.1114C15.4334 38.9901 17.9896 38.0557 20.9718 37.3082C23.954 36.4983 27.1187 36.1246 30.4661 36.1246C37.7085 36.1246 43.0035 37.8065 46.4117 41.1704C49.759 44.5342 51.4631 49.6423 51.4631 56.4946V76.6777H51.5849ZM26.8753 86.1463C28.8837 86.1463 30.953 85.7725 33.144 85.025C35.335 84.2775 37.2825 82.907 38.9258 81.0382C39.8995 79.8546 40.6299 78.5465 40.995 77.0514C41.3602 75.5564 41.6037 73.7499 41.6037 71.6319V69.0156C39.8387 68.5795 37.952 68.2058 36.0044 67.9566C34.0569 67.7074 32.1702 67.5828 30.2835 67.5828C26.2058 67.5828 23.2236 68.3926 21.2152 70.0746C19.2068 71.7565 18.233 74.1236 18.233 77.2383C18.233 80.1661 18.9633 82.3464 20.4849 83.8414C21.9455 85.3988 24.0757 86.1463 26.8753 86.1463ZM75.7467 92.874C74.6512 92.874 73.9209 92.6871 73.434 92.2511C72.9471 91.8773 72.5211 91.0052 72.1559 89.8216L57.8535 41.6687C57.4884 40.4228 57.3058 39.613 57.3058 39.177C57.3058 38.1803 57.7927 37.6196 58.7665 37.6196H64.7308C65.8872 37.6196 66.6784 37.8065 67.1044 38.2426C67.5913 38.6163 67.9565 39.4884 68.3216 40.672L78.5463 81.9103L88.0406 40.672C88.3449 39.4261 88.7101 38.6163 89.197 38.2426C89.6839 37.8688 90.5359 37.6196 91.6314 37.6196H96.5003C97.6567 37.6196 98.4478 37.8065 98.9347 38.2426C99.4216 38.6163 99.8477 39.4884 100.091 40.672L109.707 82.4087L120.236 40.672C120.601 39.4261 121.027 38.6163 121.453 38.2426C121.94 37.8688 122.731 37.6196 123.827 37.6196H129.487C130.461 37.6196 131.008 38.118 131.008 39.177C131.008 39.4884 130.948 39.7999 130.887 40.1737C130.826 40.5474 130.704 41.0458 130.461 41.731L115.793 89.8839C115.428 91.1298 115.002 91.9396 114.515 92.3134C114.028 92.6871 113.237 92.9363 112.202 92.9363H106.968C105.812 92.9363 105.021 92.7494 104.534 92.3134C104.047 91.8773 103.621 91.0675 103.378 89.8216L93.9441 49.6423L84.5715 89.7593C84.2672 91.0052 83.9021 91.815 83.4152 92.2511C82.9283 92.6871 82.0762 92.874 80.9807 92.874H75.7467ZM153.953 94.5559C150.788 94.5559 147.624 94.1822 144.581 93.4346C141.537 92.6871 139.164 91.8773 137.581 90.9429C136.608 90.3823 135.938 89.7593 135.695 89.1987C135.451 88.638 135.33 88.0151 135.33 87.4545V84.2775C135.33 82.9693 135.817 82.3464 136.729 82.3464C137.095 82.3464 137.46 82.4087 137.825 82.5333C138.19 82.6579 138.738 82.907 139.346 83.1562C141.416 84.0906 143.668 84.8381 146.041 85.3365C148.476 85.8348 150.849 86.084 153.284 86.084C157.118 86.084 160.1 85.3988 162.169 84.0283C164.239 82.6579 165.334 80.6645 165.334 78.1104C165.334 76.3662 164.786 74.9335 163.691 73.7499C162.595 72.5663 160.526 71.5073 157.544 70.5106L148.719 67.7074C144.276 66.2747 140.99 64.1567 138.981 61.3535C136.973 58.6126 135.938 55.5602 135.938 52.3209C135.938 49.7046 136.486 47.3997 137.581 45.4063C138.677 43.4129 140.138 41.6687 141.963 40.2983C143.789 38.8655 145.859 37.8065 148.293 37.059C150.727 36.3115 153.284 36 155.962 36C157.3 36 158.7 36.0623 160.039 36.2492C161.439 36.4361 162.717 36.6852 163.995 36.9344C165.212 37.2459 166.369 37.5573 167.464 37.9311C168.56 38.3049 169.412 38.6786 170.02 39.0524C170.872 39.5507 171.481 40.0491 171.846 40.6097C172.211 41.1081 172.394 41.7933 172.394 42.6654V45.5932C172.394 46.9014 171.907 47.5866 170.994 47.5866C170.507 47.5866 169.716 47.3374 168.681 46.8391C165.212 45.2194 161.317 44.4096 156.996 44.4096C153.527 44.4096 150.788 44.9703 148.902 46.1538C147.015 47.3374 146.041 49.1439 146.041 51.698C146.041 53.4422 146.65 54.9372 147.867 56.1208C149.084 57.3044 151.336 58.488 154.562 59.547L163.204 62.3502C167.586 63.7829 170.751 65.7763 172.637 68.3303C174.524 70.8844 175.437 73.8122 175.437 77.0514C175.437 79.7301 174.889 82.1595 173.855 84.2775C172.759 86.3955 171.298 88.2643 169.412 89.7593C167.525 91.3167 165.273 92.4379 162.656 93.2478C159.917 94.1199 157.057 94.5559 153.953 94.5559Z" fill="#252F3E"/>
<path fill-rule="evenodd" clip-rule="evenodd" d="M165.44 124.827C145.416 139.964 116.325 148 91.311 148C56.2551 148 24.6682 134.731 0.810679 112.68C-1.07601 110.935 0.628096 108.568 2.87995 109.939C28.685 125.263 60.5153 134.545 93.4412 134.545C115.655 134.545 140.061 129.81 162.518 120.093C165.866 118.535 168.726 122.335 165.44 124.827Z" fill="#FF9900"/>
<path fill-rule="evenodd" clip-rule="evenodd" d="M173.786 115.109C171.23 111.745 156.867 113.49 150.355 114.299C148.407 114.549 148.103 112.804 149.868 111.496C161.31 103.273 180.116 105.641 182.307 108.382C184.498 111.185 181.698 130.433 170.987 139.653C169.343 141.086 167.761 140.338 168.491 138.469C170.926 132.302 176.342 118.411 173.786 115.109Z" fill="#FF9900"/>
</svg>
