<svg width="40" height="40" viewBox="0 0 40 40" fill="none" xmlns="http://www.w3.org/2000/svg">
<path d="M4.44438 23.7247C4.44438 15.6119 11.2607 9.03512 19.669 9.03512C28.0773 9.03512 34.8936 15.6119 34.8936 23.7247C34.8936 31.8376 28.0773 38.4143 19.669 38.4143C11.2607 38.4143 4.44438 31.8375 4.44438 23.7247ZM27.2831 23.7247C27.2831 19.6673 23.8741 16.3782 19.669 16.3782C15.4638 16.3782 12.0549 19.6673 12.0549 23.7247C12.0549 27.7821 15.4638 31.0712 19.669 31.0712C23.8741 31.0712 27.2831 27.7821 27.2831 23.7247Z" fill="#7CA1FF"/>
<path d="M19.6689 9.03516H28.0795C32.2083 9.03516 35.5555 12.2505 35.5555 16.2167H19.6689V9.03516Z" fill="#3166ED"/>
<path d="M19.6689 16.2168L19.6689 0.547897C23.6903 0.547897 26.9503 3.84917 26.9503 7.9215L26.9503 16.2168L19.6689 16.2168Z" fill="#3166ED"/>
</svg>
