<svg width="184" height="184" viewBox="0 0 184 184" fill="none" xmlns="http://www.w3.org/2000/svg">
<path fill-rule="evenodd" clip-rule="evenodd" d="M120.564 105.766C121.849 103.572 121.966 100.761 120.564 98.3733L114.061 87.2452L107.557 98.3733C106.155 100.722 106.272 103.572 107.557 105.766C108.18 106.844 109.115 107.807 110.322 108.462C111.49 109.116 112.775 109.463 114.061 109.424C115.346 109.424 116.631 109.116 117.799 108.462C119.006 107.807 119.941 106.883 120.564 105.766ZM63.4362 77.1952C62.1511 79.39 62.0343 82.2009 63.4362 84.5883L69.9395 95.7164L76.4428 84.5883C77.8057 82.2394 77.7278 79.39 76.4428 77.1952C75.8197 76.1171 74.8851 75.1544 73.6779 74.4998C72.5096 73.8452 71.2246 73.4987 69.9395 73.5372C68.6544 73.5372 67.3693 73.8452 66.2011 74.4998C64.9939 75.1544 64.0593 76.0786 63.4362 77.1952Z" fill="#2036B3"/>
<path fill-rule="evenodd" clip-rule="evenodd" d="M110.205 93.9451L114.099 87.2837L108.842 78.2734V78.2349L96.6535 57.4034C93.9276 52.7442 90.1113 48.8552 85.3994 46.1598L84.971 45.9287C80.3759 43.3874 75.1966 42.1167 69.9005 42.1167C64.6044 42.1167 59.4252 43.3874 54.7911 45.9287L54.4406 46.1213C49.6508 48.8552 45.8734 52.7442 43.1475 57.4034L30.9587 78.2349V78.2734L13.7465 107.769C11.6825 111.311 12.9287 115.816 16.5113 117.857C20.094 119.898 24.6502 118.666 26.7141 115.123L44.1211 85.3199L56.0762 64.835C57.4781 62.4091 59.4252 60.3683 61.8785 58.9821L62.1511 58.8281C64.4876 57.5574 67.1746 56.9798 69.8616 56.9798C72.5875 56.9798 75.2355 57.5574 77.611 58.8281L77.8447 58.9436C80.3369 60.3683 82.284 62.4091 83.6859 64.835L95.6411 85.3199L107.401 105.42C106.311 103.263 106.272 100.645 107.596 98.4118L110.205 93.9451ZM73.7947 89.0164L76.4038 84.5498C77.7278 82.3165 77.6889 79.6596 76.5985 77.5418L88.3589 97.6417L100.314 118.127C101.716 120.552 103.663 122.593 106.155 124.018L106.389 124.133C108.764 125.443 111.412 125.982 114.138 125.982C116.864 125.982 119.512 125.404 121.849 124.133L122.121 123.979C124.575 122.593 126.522 120.552 127.924 118.127L139.879 97.6417L157.286 67.8384C159.35 64.2959 163.906 63.0637 167.489 65.1045C171.071 67.1453 172.317 71.6504 170.254 75.1929L153.041 104.688V104.727L140.891 125.558C138.165 130.217 134.349 134.106 129.598 136.84L129.248 137.033C124.614 139.613 119.434 140.845 114.138 140.845C108.842 140.845 103.663 139.574 99.0679 137.033L98.6396 136.802C93.9276 134.106 90.1113 130.217 87.3854 125.558L75.2356 104.727V104.688L69.9784 95.6779L73.7947 89.0164ZM169.202 49.5098C169.202 53.5528 172.512 56.8258 176.601 56.8258C180.69 56.8258 184 53.5528 184 49.5098C184 45.4667 180.69 42.1937 176.601 42.1937C172.512 42.1552 169.202 45.4667 169.202 49.5098ZM14.7979 133.452C14.7979 129.409 11.4878 126.136 7.39894 126.136C3.31005 126.136 0 129.409 0 133.452C0 137.495 3.31005 140.768 7.39894 140.768C11.4878 140.768 14.7979 137.495 14.7979 133.452Z" fill="#2F81FF"/>
<path fill-rule="evenodd" clip-rule="evenodd" d="M69.9005 95.6779L63.3972 84.5498C61.9953 82.2009 62.1122 79.3515 63.3972 77.1567L42.2908 113.275L32.6722 129.832C30.6083 133.375 31.8154 137.918 35.3981 139.959C38.9807 142 43.5759 140.806 45.6398 137.264L55.2195 120.899L69.9005 95.6779ZM114.099 87.2837L120.603 98.4118C122.005 100.761 121.888 103.61 120.603 105.805L141.709 69.6866L151.367 53.1678C153.431 49.6252 152.223 45.0816 148.641 43.0408C145.058 41 140.463 42.1937 138.399 45.7362L128.819 62.101L114.099 87.2837Z" fill="#FE4EEE"/>
</svg>
