<svg width="91" height="32" viewBox="0 0 91 32" fill="none" xmlns="http://www.w3.org/2000/svg">
<path d="M26.6821 9.22888V22.5624C26.6821 22.8879 26.4184 23.1516 26.0929 23.1516H20.5344L19.4738 20.3458H23.287C23.6125 20.3458 23.8762 20.082 23.8762 19.7565V12.0348C23.8762 11.7093 23.6125 11.4455 23.287 11.4455H19.8246C19.5804 11.4455 19.3588 11.597 19.2746 11.8271L17.7622 15.8227L16.2611 19.7902L16.0507 20.3458L15.1331 22.77C15.0461 23.0001 14.8273 23.1516 14.5832 23.1516H6.58362C6.25814 23.1516 5.99438 22.8879 5.99438 22.5624V9.22888C5.99438 8.9034 6.25814 8.63965 6.58362 8.63965H12.0439L13.1045 11.4455H9.3895C9.06401 11.4455 8.80026 11.7093 8.80026 12.0348V19.7565C8.80026 20.082 9.06401 20.3458 9.3895 20.3458H12.6443C12.8884 20.3458 13.1101 20.1943 13.1943 19.9642L14.7628 15.8255L16.2639 11.858L16.4182 11.4455L17.3357 9.02125C17.4227 8.79117 17.6416 8.63965 17.8857 8.63965H26.0929C26.4184 8.63965 26.6821 8.9034 26.6821 9.22888Z" fill="#E44D71"/>
<path d="M16.264 11.858L14.7628 15.8255L13.1046 11.4455L12.0439 8.63965H14.6254C14.8779 8.63965 15.1052 8.79678 15.1949 9.03247L16.1069 11.4455L16.264 11.858Z" fill="#EFAEC3"/>
<path d="M20.5346 23.1512H17.9476C17.6978 23.1512 17.4762 22.9969 17.3864 22.764L16.4717 20.3453L16.2612 19.7898L17.7624 15.8223L19.474 20.3453L20.5346 23.1512Z" fill="#EFAEC3"/>
<path d="M74.8394 7.34961H89.3144V9.03319H83.1025C83.1542 9.67825 83.3799 10.2394 83.7799 10.7168C84.1927 11.1812 84.7087 11.5811 85.328 11.9166C85.9601 12.2391 86.6761 12.5036 87.476 12.71C88.2888 12.9035 89.1338 13.0519 90.0111 13.1551L89.3144 14.8C88.5532 14.6967 87.8114 14.5548 87.089 14.3742C86.3665 14.1936 85.6828 13.9678 85.0377 13.6969C84.4056 13.4131 83.8315 13.0841 83.3154 12.71C82.7994 12.323 82.3736 11.8779 82.0382 11.3747C81.7028 11.8908 81.2771 12.3423 80.761 12.7293C80.2579 13.1035 79.6838 13.426 79.0387 13.6969C78.4066 13.9678 77.7293 14.1936 77.0068 14.3742C76.2843 14.5548 75.5425 14.6967 74.7814 14.8L74.0847 13.1551C74.9491 13.0519 75.7812 12.9035 76.5811 12.71C77.3938 12.5036 78.1163 12.2391 78.7485 11.9166C79.3806 11.5811 79.8966 11.1812 80.2966 10.7168C80.6965 10.2394 80.9287 9.67825 80.9932 9.03319H74.8394V7.34961ZM73.3494 17.993V16.2707H81.0126V13.9098H83.1025V16.2707H90.7658V17.993H73.3494ZM76.6778 19.3476V23.2179H89.7401V24.9208H74.6072V19.3476H76.6778Z" fill="#E44D71"/>
<path d="M55.7306 18.2832V7.34961H70.4571V18.2832H55.7306ZM68.3672 9.0719H57.8206V16.5803H68.3672V9.0719ZM54.376 24.5338V22.8115H62.0585V19.1154H64.1485V22.8115H71.8117V24.5338H54.376Z" fill="#E44D71"/>
<path d="M44.7104 24.5729H36.2344V7.35002H38.3243V22.87H44.7104V24.5729ZM42.8913 14.2198H46.5488V7.25326H48.5613V24.6697H46.5488V15.9421H42.8913V14.2198ZM50.1868 24.9212V7.0791H52.2188V24.9212H50.1868Z" fill="#E44D71"/>
</svg>
