<svg xmlns="http://www.w3.org/2000/svg" width="32" height="39" viewBox="0 0 32 39" fill="none">
  <path d="M0.444383 23.7247C0.444384 15.6119 7.26066 9.03512 15.669 9.03512C24.0773 9.03512 30.8936 15.6119 30.8936 23.7247C30.8936 31.8376 24.0773 38.4143 15.669 38.4143C7.26066 38.4143 0.444382 31.8375 0.444383 23.7247ZM23.2831 23.7247C23.2831 19.6673 19.8741 16.3782 15.669 16.3782C11.4638 16.3782 8.05489 19.6673 8.05489 23.7247C8.05489 27.7821 11.4638 31.0712 15.669 31.0712C19.8741 31.0712 23.2831 27.7821 23.2831 23.7247Z" fill="#7CA1FF"/>
  <path d="M15.6689 9.03516H24.0795C28.2083 9.03516 31.5555 12.2505 31.5555 16.2167H15.6689V9.03516Z" fill="#3166ED"/>
  <path d="M15.6689 16.2168L15.6689 0.547897C19.6903 0.547897 22.9503 3.84917 22.9503 7.9215L22.9503 16.2168L15.6689 16.2168Z" fill="#3166ED"/>
</svg>